<svg xmlns="http://www.w3.org/2000/svg" height="480" width="640">
  <defs>
    <clipPath id="a">
      <path fill-opacity=".67" d="M-79.698 0h682.67v512h-682.67z"/>
    </clipPath>
  </defs>
  <g clip-path="url(#a)" fill-rule="evenodd" transform="translate(74.717) scale(.9375)">
    <path fill="#fff" d="M-120 0h763.27v511.49H-120z"/>
    <path d="M-118.31.617h760.88v216.09h-760.88z"/>
    <path fill="#0061ff" d="M21.3 203.23h505.01v113.82H21.3z"/>
    <path d="M642.75 1.753v510.25H262.03L642.75 1.753z" fill="#e20000"/>
    <path d="M-118.69 1.753v510.25h380.72L-118.69 1.753z" fill="#e20000"/>
    <path d="M440.37 203.34l-76.31-19.363L428.98 135l-79.726 11.39 41.003-69.475-70.616 41.003 12.53-80.867-47.837 63.783L264.97 26.8l-21.64 76.31-47.837-64.92 13.667 83.145-70.615-43.282 41.003 69.476-77.45-12.53 63.783 47.838-79.727 20.5h354.22z" fill="#ffd600"/>
  </g>
</svg>


<svg xmlns="http://www.w3.org/2000/svg" height="480" width="640">
  <defs>
    <g id="s">
      <g id="c">
        <path id="t" d="M0,0v1h0.5z" transform="translate(0,-1)rotate(18)"/>
        <use xlink:href="#t" transform="scale(-1,1)"/>
      </g>
      <g id="a">
        <use xlink:href="#c" transform="rotate(72)"/>
        <use xlink:href="#c" transform="rotate(144)"/>
      </g>
      <use xlink:href="#a" transform="scale(-1,1)"/>
    </g>
  </defs>
  <rect fill="#039" width="640" height="480"/>
  <g fill="#fc0" transform="scale(28)translate(11.5,8.5">
    <use xlink:href="#s" y="-6"/>
    <use xlink:href="#s" y="6"/>
    <g id="l">
      <use xlink:href="#s" x="-6"/>
      <use xlink:href="#s" transform="rotate(150)translate(0,6)rotate(66)"/>
      <use xlink:href="#s" transform="rotate(120)translate(0,6)rotate(24)"/>
      <use xlink:href="#s" transform="rotate(60)translate(0,6)rotate(12)"/>
      <use xlink:href="#s" transform="rotate(30)translate(0,6)rotate(42)"/>
    </g>
    <use xlink:href="#l" transform="scale(-1,1)"/>
  </g>
</svg>